<svg width="28" height="21" viewBox="0 0 28 21" fill="none" xmlns="http://www.w3.org/2000/svg">
<path d="M2.0782 20.9299C1.50141 20.9299 1.01084 20.7292 0.606491 20.3278C0.202163 19.9264 0 19.4394 0 18.8668V2.1331C0 1.56053 0.202163 1.07354 0.606491 0.672134C1.01084 0.270757 1.50141 0.0700684 2.0782 0.0700684H24.9387C25.5154 0.0700684 26.006 0.270757 26.4104 0.672134C26.8147 1.07354 27.0169 1.56053 27.0169 2.1331V18.8668C27.0169 19.4394 26.8147 19.9264 26.4104 20.3278C26.006 20.7292 25.5154 20.9299 24.9387 20.9299H2.0782ZM25.8623 2.09015L14.1088 9.90111C14.0087 9.95078 13.9101 9.99424 13.8129 10.0315C13.7158 10.0687 13.6143 10.0874 13.5084 10.0874C13.4026 10.0874 13.3011 10.0687 13.2039 10.0315C13.1067 9.99424 13.0177 9.95078 12.9369 9.90111L1.15456 2.09015V18.8668C1.15456 19.1343 1.24115 19.3539 1.41433 19.5259C1.58752 19.6978 1.8088 19.7837 2.0782 19.7837H24.9387C25.2081 19.7837 25.4293 19.6978 25.6025 19.5259C25.7757 19.3539 25.8623 19.1343 25.8623 18.8668V2.09015ZM13.5084 8.96413L25.337 1.2162H1.71741L13.5084 8.96413ZM1.15456 2.37955V1.50381V1.55097V1.2162V1.52854V1.46589V2.37955Z" fill="#0A0033"/>
</svg>
