<svg width="25" height="29" viewBox="0 0 25 29" fill="none" xmlns="http://www.w3.org/2000/svg">
<path d="M2.13595 26.9357H21.879V26.7494C20.4743 25.4027 18.9277 24.3903 17.2391 23.7121C15.5506 23.034 13.8053 22.695 12.0032 22.695C10.2396 22.695 8.52552 23.0097 6.86101 23.6391C5.19652 24.2685 3.6215 25.2594 2.13595 26.6119V26.9357ZM1.15456 25.9041C2.54773 24.546 4.17519 23.4805 6.03695 22.7078C7.89869 21.9351 9.88887 21.5488 12.0075 21.5488C14.1261 21.5488 16.11 21.9351 17.9593 22.7078C19.8085 23.4805 21.4422 24.546 22.8604 25.9041V5.96126C22.8604 5.6938 22.7738 5.47412 22.6007 5.3022C22.4275 5.13028 22.2062 5.04432 21.9368 5.04432H2.0782C1.8088 5.04432 1.58752 5.13028 1.41433 5.3022C1.24115 5.47412 1.15456 5.6938 1.15456 5.96126V25.9041ZM12.0075 17.0158C10.774 17.0158 9.72577 16.5874 8.86273 15.7307C7.99969 14.8739 7.56817 13.8333 7.56817 12.6089C7.56817 11.3844 7.99969 10.3438 8.86273 9.48709C9.72577 8.63034 10.774 8.20197 12.0075 8.20197C13.241 8.20197 14.2892 8.63034 15.1523 9.48709C16.0153 10.3438 16.4468 11.3844 16.4468 12.6089C16.4468 13.8333 16.0153 14.8739 15.1523 15.7307C14.2892 16.5874 13.241 17.0158 12.0075 17.0158ZM12.0163 15.8697C12.9264 15.8697 13.6999 15.5506 14.3368 14.9125C14.9738 14.2743 15.2922 13.5035 15.2922 12.6001C15.2922 11.6967 14.9708 10.9288 14.328 10.2966C13.6852 9.66426 12.9087 9.34811 11.9987 9.34811C11.0886 9.34811 10.3151 9.66718 9.67815 10.3053C9.04123 10.9434 8.72277 11.7142 8.72277 12.6177C8.72277 13.5211 9.04417 14.2889 9.68697 14.9212C10.3298 15.5535 11.1062 15.8697 12.0163 15.8697ZM2.0782 28.0818C1.50141 28.0818 1.01084 27.8811 0.606491 27.4797C0.202163 27.0783 0 26.5914 0 26.0188V5.96126C0 5.38866 0.202163 4.90165 0.606491 4.50025C1.01084 4.09887 1.50141 3.89819 2.0782 3.89819H5.18112V1.59444C5.18112 1.40954 5.24242 1.2506 5.36502 1.11765C5.48765 0.984691 5.64295 0.918213 5.83091 0.918213C6.02949 0.918213 6.19453 0.984691 6.32603 1.11765C6.45754 1.2506 6.5233 1.40954 6.5233 1.59444V3.89819H17.6071V1.54516C17.6071 1.35489 17.6656 1.20284 17.7825 1.089C17.8994 0.975143 18.045 0.918213 18.2195 0.918213C18.4045 0.918213 18.558 0.977291 18.6799 1.09545C18.8018 1.21358 18.8628 1.36081 18.8628 1.53715V3.89819H21.9368C22.5136 3.89819 23.0041 4.09887 23.4085 4.50025C23.8128 4.90165 24.015 5.38866 24.015 5.96126V26.0188C24.015 26.5914 23.8128 27.0783 23.4085 27.4797C23.0041 27.8811 22.5136 28.0818 21.9368 28.0818H2.0782Z" fill="#0A0033"/>
</svg>
