<svg width="292" height="31" viewBox="0 0 292 31" fill="none" xmlns="http://www.w3.org/2000/svg">
<mask id="path-1-inside-1_32382_9028" fill="white">
<path d="M134 0H257V31H134V0Z"/>
</mask>
<path d="M134 31H137V0H134H131V31H134Z" fill="black" mask="url(#path-1-inside-1_32382_9028)"/>
<path d="M155.988 17.818V18.324C157.044 18.61 157.858 19.49 157.858 20.92C157.858 22.944 156.45 24 153.898 24H147.716V12.802H153.7C155.988 12.802 157.242 13.88 157.242 15.64C157.242 16.718 156.626 17.488 155.988 17.818ZM150.158 22.108H153.436C154.866 22.108 155.35 21.492 155.35 20.634C155.35 19.776 154.866 19.138 153.436 19.138H150.158V22.108ZM150.158 14.694V17.334H153.172C154.338 17.334 154.756 16.718 154.756 16.014C154.756 15.288 154.338 14.694 153.172 14.694H150.158ZM170.704 17.774V18.61H162.432C162.498 20.898 163.554 22.174 165.578 22.174C166.92 22.174 167.69 21.646 168.02 20.744H170.55C170.132 22.834 168.46 24.286 165.556 24.286C162.036 24.286 159.968 21.822 159.968 18.324C159.968 14.826 162.058 12.516 165.49 12.516C168.856 12.516 170.638 14.87 170.704 17.774ZM165.468 14.496C163.708 14.496 162.828 15.464 162.542 16.762H168.152C167.998 15.508 167.118 14.496 165.468 14.496ZM178.888 13.044C182.188 13.044 184.19 15.464 184.19 18.676C184.19 21.866 181.99 24.286 178.514 24.286C174.906 24.286 172.794 21.91 172.794 17.444C172.794 13.792 173.432 9.964 177.216 9.326L180.142 8.842C180.956 8.732 181.176 8.6 181.242 8.006H183.376C183.31 9.282 183.002 10.492 181.132 10.778L177.568 11.35C175.808 11.636 175.104 12.802 174.818 14.584H175.346C176.204 13.462 177.326 13.044 178.888 13.044ZM178.492 22.174C180.67 22.174 181.66 20.458 181.66 18.61C181.66 16.762 180.67 15.09 178.492 15.09C176.292 15.09 175.302 16.762 175.302 18.61C175.302 20.458 176.292 22.174 178.492 22.174ZM189.784 24H186.968V12.802H189.388V20.194H189.916L194.514 12.802H197.396V24H194.976V16.608H194.448L189.784 24ZM211.209 24H208.723V19.314H203.311V24H200.825V12.802H203.311V17.202H208.723V12.802H211.209V24ZM221.636 24V22.966H221.108C220.426 23.824 219.37 24.286 217.808 24.286C215.234 24.286 213.804 22.548 213.804 20.612C213.804 18.852 215.014 16.85 218.248 16.85H221.548V16.52C221.548 15.288 220.844 14.474 219.194 14.474C217.764 14.474 217.038 15.046 216.95 15.904H214.486C214.596 13.792 216.466 12.516 219.106 12.516C222.01 12.516 223.946 13.792 223.946 16.564V24H221.636ZM218.578 22.262C220.25 22.262 221.548 21.03 221.548 19.468V18.61H218.688C217.104 18.61 216.312 19.292 216.312 20.458C216.312 21.602 217.148 22.262 218.578 22.262ZM232.752 14.628C230.574 14.628 229.65 16.432 229.65 18.39C229.65 20.392 230.574 22.174 232.752 22.174C234.798 22.174 235.81 20.568 235.81 18.39C235.81 16.234 234.798 14.628 232.752 14.628ZM227.23 12.802H229.628V13.88H230.156C230.772 13.11 231.784 12.516 233.456 12.516C236.492 12.516 238.296 15.046 238.296 18.39C238.296 21.8 236.47 24.286 233.456 24.286C231.806 24.286 230.838 23.714 230.244 22.922H229.716V28.4H227.23V12.802ZM241.066 12.802H243.552V16.278H246.346C249.184 16.278 250.702 17.708 250.702 20.084C250.702 22.482 249.184 24 246.346 24H241.066V12.802ZM243.552 18.28V21.888H245.994C247.688 21.888 248.216 21.206 248.216 20.084C248.216 18.94 247.688 18.28 245.994 18.28H243.552ZM252.44 12.802H254.926V24H252.44V12.802Z" fill="black"/>
<path d="M52.5892 4.8477V27.1654H48.7795V17.4088H37.4441V27.1561H33.6343V4.8477H37.4441V13.9087H48.7795V4.8477H52.5892Z" fill="black"/>
<path d="M67.8902 13.6279C72.8434 13.6279 75.6373 16.1274 75.6373 20.3771C75.6373 24.6268 72.8472 27.1561 67.8902 27.1561H57.702V4.8477H73.7672V8.25301H61.5061V13.6279H67.8902ZM67.2236 23.8438C70.6203 23.8438 71.7957 22.5326 71.7957 20.2822C71.7957 18.0635 70.5583 16.7486 67.2236 16.7486H61.5061V23.8401L67.2236 23.8438Z" fill="black"/>
<path d="M79.3945 4.8477H83.2043V13.9719H89.3329L93.6834 4.8477H97.6265L92.5475 15.6904L97.9138 27.1561H93.9707L89.3329 17.3772H83.2043V27.1561H79.3945V4.8477Z" fill="black"/>
<path d="M104.979 4.8477V22.2202H105.742L115.107 4.8477H120.506V27.1654H116.886V9.78363H116.125L106.758 27.1561H101.361V4.8477H104.979Z" fill="black"/>
<path d="M11.2659 25.6645C11.7115 25.6645 12.1471 25.5336 12.5177 25.2884C12.8882 25.0432 13.177 24.6946 13.3475 24.2868C13.5181 23.879 13.5627 23.4303 13.4758 22.9973C13.3888 22.5644 13.1742 22.1668 12.8591 21.8546C12.544 21.5425 12.1425 21.33 11.7055 21.2438C11.2684 21.1577 10.8153 21.2019 10.4036 21.3708C9.99191 21.5398 9.64001 21.8258 9.39243 22.1928C9.14484 22.5598 9.0127 22.9913 9.0127 23.4327C9.0127 24.0246 9.25008 24.5923 9.67264 25.0108C10.0952 25.4294 10.6683 25.6645 11.2659 25.6645ZM11.2659 21.5729C11.6372 21.5729 12.0003 21.682 12.309 21.8864C12.6178 22.0907 12.8585 22.3812 13.0006 22.721C13.1427 23.0609 13.1799 23.4348 13.1074 23.7956C13.035 24.1563 12.8562 24.4877 12.5936 24.7478C12.331 25.0079 11.9964 25.185 11.6322 25.2568C11.268 25.3286 10.8904 25.2917 10.5473 25.151C10.2042 25.0102 9.91099 24.7718 9.70467 24.466C9.49835 24.1601 9.38823 23.8006 9.38823 23.4327C9.38823 22.9395 9.58605 22.4664 9.93818 22.1177C10.2903 21.7689 10.7679 21.5729 11.2659 21.5729Z" fill="black"/>
<path d="M18.7765 21.201C18.3309 21.201 17.8952 21.3319 17.5247 21.5771C17.1542 21.8223 16.8654 22.1709 16.6948 22.5787C16.5243 22.9865 16.4797 23.4352 16.5666 23.8681C16.6536 24.3011 16.8681 24.6987 17.1833 25.0108C17.4984 25.323 17.8998 25.5355 18.3369 25.6216C18.774 25.7077 19.227 25.6635 19.6387 25.4946C20.0505 25.3257 20.4024 25.0397 20.6499 24.6726C20.8975 24.3056 21.0297 23.8741 21.0297 23.4327C21.0297 22.8408 20.7923 22.2732 20.3697 21.8546C19.9472 21.4361 19.3741 21.201 18.7765 21.201ZM18.7765 25.2925C18.4051 25.2925 18.0421 25.1835 17.7333 24.9791C17.4246 24.7747 17.1839 24.4843 17.0418 24.1445C16.8997 23.8046 16.8625 23.4307 16.9349 23.0699C17.0074 22.7091 17.1862 22.3777 17.4488 22.1177C17.7114 21.8576 18.046 21.6804 18.4102 21.6087C18.7744 21.5369 19.1519 21.5737 19.495 21.7145C19.8381 21.8553 20.1314 22.0936 20.3377 22.3995C20.544 22.7053 20.6541 23.0649 20.6541 23.4327C20.6541 23.926 20.4563 24.399 20.1042 24.7478C19.7521 25.0966 19.2745 25.2925 18.7765 25.2925Z" fill="black"/>
<path d="M20.6541 4.83461H1.87765C1.37966 4.83461 0.902079 5.03055 0.549951 5.37934C0.197823 5.72812 0 6.20116 0 6.69442V25.2925C0 25.7857 0.197823 26.2588 0.549951 26.6076C0.902079 26.9564 1.37966 27.1523 1.87765 27.1523H20.6541C21.1521 27.1523 21.6297 26.9564 21.9818 26.6076C22.334 26.2588 22.5318 25.7857 22.5318 25.2925V6.69442C22.5318 6.20116 22.334 5.72812 21.9818 5.37934C21.6297 5.03055 21.1521 4.83461 20.6541 4.83461ZM7.32283 26.7803H1.87765C1.47926 26.7803 1.09719 26.6236 0.815491 26.3446C0.533789 26.0655 0.37553 25.6871 0.37553 25.2925V6.69442C0.37553 6.29982 0.533789 5.92138 0.815491 5.64235C1.09719 5.36333 1.47926 5.20657 1.87765 5.20657H7.32283V26.7803ZM14.8334 26.7803H7.69836V5.20657H14.8334V26.7803ZM22.1563 25.2925C22.1563 25.6871 21.998 26.0655 21.7163 26.3446C21.4346 26.6236 21.0525 26.7803 20.6541 26.7803H15.209V5.20657H20.6541C21.0525 5.20657 21.4346 5.36333 21.7163 5.64235C21.998 5.92138 22.1563 6.29982 22.1563 6.69442V25.2925Z" fill="black"/>
<path d="M3.75532 25.6645C4.20095 25.6645 4.63658 25.5336 5.00712 25.2884C5.37765 25.0432 5.66645 24.6946 5.83698 24.2868C6.00752 23.879 6.05214 23.4303 5.9652 22.9973C5.87826 22.5644 5.66367 22.1668 5.34856 21.8546C5.03344 21.5425 4.63197 21.33 4.19489 21.2438C3.75782 21.1577 3.30478 21.2019 2.89306 21.3708C2.48135 21.5398 2.12945 21.8258 1.88187 22.1928C1.63428 22.5598 1.50214 22.9913 1.50214 23.4327C1.50214 24.0246 1.73953 24.5923 2.16208 25.0108C2.58463 25.4294 3.15774 25.6645 3.75532 25.6645ZM3.75532 21.5729C4.12668 21.5729 4.48971 21.682 4.79848 21.8864C5.10726 22.0907 5.34792 22.3812 5.49004 22.721C5.63215 23.0609 5.66934 23.4348 5.59689 23.7956C5.52444 24.1563 5.34561 24.4877 5.08302 24.7478C4.82042 25.0079 4.48586 25.185 4.12163 25.2568C3.7574 25.3286 3.37987 25.2917 3.03677 25.151C2.69368 25.0102 2.40043 24.7718 2.19411 24.466C1.98779 24.1601 1.87767 23.8006 1.87767 23.4327C1.87767 22.9395 2.07549 22.4664 2.42762 22.1177C2.77975 21.7689 3.25733 21.5729 3.75532 21.5729Z" fill="black"/>
</svg>
